<svg width="20" height="16" viewBox="0 0 20 16" fill="none" xmlns="http://www.w3.org/2000/svg">
<path d="M5.6444 3.3182C6.20453 3.3182 6.72157 3.36129 7.19553 3.49055C7.66949 3.57672 8.05727 3.74907 8.40196 3.9645C8.74666 4.17994 9.00518 4.48155 9.17753 4.86933C9.34988 5.25711 9.43605 5.73107 9.43605 6.24811C9.43605 6.85133 9.30679 7.36838 9.00518 7.75616C8.74666 8.14394 8.31579 8.48864 7.79875 8.74716C8.53122 8.9626 9.09136 9.35038 9.43605 9.86742C9.78075 10.3845 9.99618 11.0308 9.99618 11.7633C9.99618 12.3665 9.86692 12.8835 9.65149 13.3144C9.43605 13.7453 9.09136 14.133 8.70357 14.3916C8.31579 14.6501 7.84183 14.8655 7.32479 14.9948C6.80774 15.124 6.2907 15.2102 5.77366 15.2102H0V3.3182H5.6444ZM5.2997 8.14394C5.77366 8.14394 6.16144 8.01468 6.46305 7.79925C6.76466 7.58381 6.89392 7.19603 6.89392 6.72207C6.89392 6.46355 6.85083 6.20503 6.76466 6.03268C6.67848 5.86033 6.54922 5.73107 6.37688 5.60181C6.20453 5.51564 6.03218 5.42946 5.81674 5.38637C5.60131 5.34329 5.38587 5.34329 5.12735 5.34329H2.62831V8.14394H5.2997ZM5.42896 13.2282C5.68748 13.2282 5.94601 13.1851 6.16144 13.142C6.37688 13.0989 6.59231 13.0128 6.76466 12.8835C6.93701 12.7543 7.06627 12.625 7.19553 12.4096C7.2817 12.1941 7.36788 11.9356 7.36788 11.634C7.36788 11.0308 7.19553 10.5999 6.85083 10.2983C6.50614 10.0398 6.03218 9.91051 5.47205 9.91051H2.62831V13.2282H5.42896ZM13.7448 13.1851C14.0894 13.5298 14.6065 13.7022 15.2959 13.7022C15.7698 13.7022 16.2007 13.5729 16.5454 13.3575C16.8901 13.0989 17.1055 12.8404 17.1917 12.5819H19.303C18.9583 13.616 18.4412 14.3485 17.7518 14.8224C17.0624 15.2533 16.2438 15.5118 15.2528 15.5118C14.5634 15.5118 13.9602 15.3826 13.4001 15.1671C12.8399 14.9517 12.4091 14.6501 12.0213 14.2192C11.6335 13.8314 11.3319 13.3575 11.1595 12.7973C10.9441 12.2372 10.8579 11.634 10.8579 10.9446C10.8579 10.2983 10.9441 9.69507 11.1595 9.13494C11.375 8.57481 11.6766 8.10086 12.0644 7.66999C12.4521 7.2822 12.9261 6.93751 13.4431 6.72207C14.0033 6.50664 14.5634 6.37738 15.2528 6.37738C15.9853 6.37738 16.6316 6.50664 17.1917 6.80825C17.7518 7.10985 18.1827 7.45455 18.5274 7.97159C18.8721 8.44555 19.1306 9.00568 19.303 9.6089C19.3891 10.2121 19.4322 10.8153 19.3891 11.5047H13.1415C13.1415 12.1941 13.4001 12.8404 13.7448 13.1851ZM16.4592 8.66099C16.1576 8.35938 15.6837 8.18703 15.1235 8.18703C14.7358 8.18703 14.4341 8.2732 14.1756 8.40246C13.9171 8.53173 13.7448 8.70407 13.5724 8.87642C13.4001 9.04877 13.3139 9.2642 13.2708 9.47964C13.2277 9.69507 13.1846 9.86742 13.1846 10.0398H17.0624C16.9763 9.39347 16.7608 8.9626 16.4592 8.66099ZM12.6676 4.13685H17.4933V5.3002H12.6676V4.13685Z" fill="#1157FF"/>
</svg>
